<svg width="28" height="32" viewBox="0 0 28 32" fill="none" xmlns="http://www.w3.org/2000/svg">
<path d="M19.4194 14.8147C17.775 12.8471 16.9528 11.8634 16.0077 12.0149C15.0625 12.1664 14.6204 13.3529 13.736 15.7258L13.5072 16.3397C13.2559 17.014 13.1303 17.3512 12.8858 17.5996C12.6413 17.8479 12.3057 17.9794 11.6345 18.2423L11.0234 18.4816C8.6612 19.4068 7.48013 19.8694 7.34543 20.8149C7.21073 21.7604 8.21161 22.5626 10.2134 24.1671L10.7313 24.5822C11.3001 25.0381 11.5845 25.2661 11.7491 25.5781C11.9138 25.8902 11.94 26.251 11.9924 26.9726L12.0402 27.6295C12.2247 30.1689 12.3169 31.4385 13.1788 31.8713C14.0407 32.3042 15.1014 31.6135 17.2229 30.2322L17.7718 29.8748C18.3746 29.4823 18.6761 29.286 19.0223 29.2305C19.3685 29.175 19.7203 29.2665 20.424 29.4496L21.0646 29.6163C23.5408 30.2605 24.7789 30.5826 25.4463 29.9046C26.1136 29.2266 25.7683 27.9975 25.0777 25.5394L24.8991 24.9034C24.7028 24.2049 24.6047 23.8556 24.654 23.5092C24.7034 23.1629 24.8946 22.8587 25.277 22.2502L25.6252 21.6963C26.9711 19.5551 27.644 18.4845 27.1946 17.6327C26.7452 16.7808 25.471 16.7119 22.9227 16.5739L22.2634 16.5383C21.5393 16.4991 21.1772 16.4795 20.8615 16.3209C20.5457 16.1624 20.3121 15.8828 19.8448 15.3237L19.4194 14.8147Z" fill="#FCB707"/>
<path d="M18.7966 5.61172L19.1016 6.48142C19.4367 7.43669 19.6042 7.91434 19.9302 8.26619C20.2562 8.61803 20.7037 8.80425 21.5987 9.17669L22.4135 9.51578C25.563 10.8264 27.1378 11.4818 27.3174 12.8212C27.3922 13.3788 27.2046 13.9011 26.7676 14.485C26.6199 14.445 26.4777 14.4124 26.3441 14.3853C25.4672 14.207 24.3518 14.1469 23.215 14.0856L22.3987 14.0415C22.2418 14.033 22.1197 14.0263 22.0152 14.0195C21.9459 13.9385 21.8661 13.8431 21.7633 13.72L21.2373 13.0906C20.5033 12.212 19.7852 11.3523 19.1174 10.7556C18.4052 10.1191 17.2147 9.28904 15.6121 9.54596C13.9925 9.80562 13.1286 10.984 12.6625 11.8252C12.2307 12.6044 11.8423 13.6474 11.4491 14.7033L11.1648 15.4663C11.1168 15.5951 11.0783 15.6984 11.0444 15.7873C10.9555 15.8229 10.8521 15.8634 10.723 15.914L9.96383 16.2113C8.91236 16.6228 7.87495 17.0288 7.10249 17.4733C6.27127 17.9516 5.1024 18.8349 4.87063 20.4618C4.64106 22.0732 5.49927 23.2496 6.14889 23.9472C6.63307 24.4671 7.28359 25.0155 7.97815 25.5776C5.36387 26.2869 3.97328 26.5514 3.18295 25.6983C2.29311 24.7379 2.75352 22.9966 3.67434 19.5142L3.91256 18.6133C4.17423 17.6237 4.30506 17.1289 4.23927 16.6382C4.17348 16.1476 3.91851 15.7166 3.40858 14.8546L2.94432 14.0698C1.14984 11.0365 0.252597 9.51985 0.851841 8.31307C1.45108 7.10629 3.14995 7.00859 6.54769 6.81321L7.42673 6.76266C8.39227 6.70714 8.87503 6.67937 9.29601 6.45476C9.71698 6.23015 10.0285 5.83411 10.6515 5.04203L11.2188 4.32092C13.4113 1.53357 14.5076 0.139898 15.7677 0.35456C17.0279 0.569222 17.6175 2.25005 18.7966 5.61172Z" fill="#FCB707"/>
</svg>
